<svg width="73" height="18" viewBox="0 0 73 18" fill="none" xmlns="http://www.w3.org/2000/svg">
<path d="M0 17.7017V0.298342H3.84225V14.221H12.5497V17.7017H0Z" fill="white"/>
<path d="M29.5679 15.3895C27.8048 17.1298 25.5926 18 22.9313 18C20.27 18 18.0578 17.1298 16.2947 15.3895C14.5482 13.6492 13.675 11.5193 13.675 9C13.675 6.49724 14.5565 4.37569 16.3196 2.63536C18.0994 0.878453 20.3199 0 22.9812 0C25.6425 0 27.8464 0.870165 29.5928 2.6105C31.356 4.35083 32.2375 6.48066 32.2375 9C32.2375 11.5028 31.3476 13.6326 29.5679 15.3895ZM19.1888 12.8785C20.1868 13.9392 21.4509 14.4696 22.9812 14.4696C24.5114 14.4696 25.7672 13.9475 26.7486 12.9033C27.7299 11.8425 28.2206 10.5414 28.2206 9C28.2206 7.47514 27.7216 6.18232 26.7236 5.12155C25.7256 4.06077 24.4615 3.53039 22.9313 3.53039C21.401 3.53039 20.1452 4.06077 19.1639 5.12155C18.1825 6.16575 17.6918 7.45856 17.6918 9C17.6918 10.5249 18.1908 11.8177 19.1888 12.8785Z" fill="white"/>
<path d="M44.0539 18C41.3427 18 39.1305 17.1547 37.4173 15.4641C35.7207 13.7735 34.8724 11.6188 34.8724 9C34.8724 6.49724 35.7457 4.37569 37.4921 2.63536C39.2386 0.878453 41.4176 0 44.029 0C45.5426 0 46.8233 0.198895 47.8712 0.596685C48.9191 0.9779 49.9254 1.57459 50.8901 2.38674L48.47 5.29558C47.7381 4.68232 47.0312 4.23481 46.3493 3.95304C45.6673 3.67127 44.8523 3.53039 43.9042 3.53039C42.507 3.53039 41.3178 4.06906 40.3364 5.14641C39.3717 6.20718 38.8893 7.49171 38.8893 9C38.8893 10.5912 39.38 11.9088 40.3614 12.953C41.3593 13.9972 42.6318 14.5193 44.1786 14.5193C45.6091 14.5193 46.815 14.1713 47.7964 13.4751V10.9889H43.9292V7.68232H51.5139V15.2403C49.3349 17.0801 46.8483 18 44.0539 18Z" fill="white"/>
<path d="M70.3304 15.3895C68.5673 17.1298 66.3551 18 63.6938 18C61.0325 18 58.8203 17.1298 57.0572 15.3895C55.3107 13.6492 54.4374 11.5193 54.4374 9C54.4374 6.49724 55.319 4.37569 57.0821 2.63536C58.8619 0.878453 61.0824 0 63.7437 0C66.405 0 68.6089 0.870165 70.3553 2.6105C72.1184 4.35083 73 6.48066 73 9C73 11.5028 72.1101 13.6326 70.3304 15.3895ZM59.9513 12.8785C60.9493 13.9392 62.2134 14.4696 63.7437 14.4696C65.2739 14.4696 66.5297 13.9475 67.5111 12.9033C68.4924 11.8425 68.9831 10.5414 68.9831 9C68.9831 7.47514 68.4841 6.18232 67.4861 5.12155C66.4881 4.06077 65.224 3.53039 63.6938 3.53039C62.1635 3.53039 60.9077 4.06077 59.9264 5.12155C58.945 6.16575 58.4543 7.45856 58.4543 9C58.4543 10.5249 58.9533 11.8177 59.9513 12.8785Z" fill="white"/>
</svg>
