<svg aria-hidden="true" style="position: absolute; width: 0; height: 0; overflow: hidden;" version="1.1" xmlns="http://www.w3.org/2000/svg" xmlns:xlink="http://www.w3.org/1999/xlink">
<defs>
<symbol id="icon-LOGO" viewBox="0 0 130 32">
<path   d="M0 31.47v-30.94h6.83v24.752h15.481v6.187h-22.311zM52.565 27.36c-3.134 3.093-7.067 4.64-11.801 4.64-4.731 0-8.663-1.547-11.797-4.64-3.106-3.093-4.658-6.88-4.658-11.36 0-4.45 1.566-8.22 4.702-11.316 3.166-3.124 7.113-4.684 11.842-4.684 4.731 0 8.649 1.547 11.755 4.64 3.134 3.093 4.7 6.88 4.7 11.36 0 4.45-1.582 8.236-4.747 11.36zM34.112 22.896c1.776 1.884 4.023 2.827 6.743 2.827s4.953-0.926 6.699-2.784c1.742-1.884 2.617-4.199 2.617-6.939 0-2.711-0.889-5.010-2.661-6.894-1.774-1.886-4.021-2.83-6.743-2.83-2.72 0-4.953 0.942-6.697 2.83-1.746 1.856-2.617 4.155-2.617 6.894 0 2.711 0.887 5.010 2.661 6.896zM78.318 32c-4.82 0-8.754-1.502-11.799-4.508-3.015-3.004-4.524-6.836-4.524-11.492 0-4.45 1.554-8.22 4.658-11.316 3.108-3.124 6.98-4.684 11.623-4.684 2.692 0 4.967 0.354 6.83 1.061 1.863 0.676 3.652 1.739 5.369 3.182l-4.306 5.172c-1.301-1.092-2.558-1.886-3.769-2.388-1.214-0.501-2.663-0.752-4.348-0.752-2.484 0-4.597 0.96-6.343 2.873-1.714 1.886-2.571 4.171-2.571 6.852 0 2.828 0.873 5.172 2.617 7.028 1.774 1.856 4.036 2.784 6.788 2.784 2.542 0 4.686-0.619 6.43-1.856v-4.418h-6.875v-5.881h13.484v13.436c-3.876 3.271-8.295 4.907-13.262 4.907zM125.031 27.36c-3.134 3.093-7.067 4.64-11.797 4.64-4.732 0-8.665-1.547-11.799-4.64-3.104-3.093-4.658-6.88-4.658-11.36 0-4.45 1.568-8.22 4.702-11.316 3.164-3.124 7.111-4.684 11.844-4.684 4.731 0 8.649 1.547 11.753 4.64 3.134 3.093 4.702 6.88 4.702 11.36 0 4.45-1.582 8.236-4.747 11.36zM106.58 22.896c1.774 1.884 4.021 2.827 6.743 2.827 2.72 0 4.953-0.926 6.697-2.784 1.744-1.884 2.617-4.199 2.617-6.939 0-2.711-0.887-5.010-2.661-6.894-1.774-1.886-4.021-2.83-6.741-2.83s-4.953 0.942-6.699 2.83c-1.744 1.856-2.617 4.155-2.617 6.894 0 2.711 0.889 5.010 2.661 6.896z"></path>
</symbol>
<symbol id="icon-telephone" viewBox="0 0 32 32">
<path fill="none" stroke="#fff" style="stroke: var(--color2, #fff)" stroke-linejoin="round" stroke-linecap="round" stroke-miterlimit="4" stroke-width="3.2" d="M29.252 24.081l-0.256 2.308c-0.22 1.984-1.805 3.507-3.77 3.157-3.334-0.597-8.751-2.481-14.522-8.252-5.769-5.769-7.654-11.183-8.25-14.522-0.352-1.963 1.173-3.55 3.157-3.77l2.304-0.256c0.142-0.017 0.306-0.026 0.472-0.026 1.578 0 2.956 0.857 3.694 2.13l0.011 0.020 1.020 1.786c0.804 1.406 0.567 3.177-0.576 4.32-0.851 0.849-1.21 2.078-0.646 3.136 0.723 1.306 1.582 2.428 2.583 3.406l0.003 0.003c0.98 1.002 2.102 1.861 3.333 2.546l0.074 0.038c1.060 0.565 2.289 0.207 3.136-0.642 0.65-0.65 1.548-1.052 2.54-1.052 0.656 0 1.271 0.176 1.8 0.483l-0.017-0.009 1.786 1.020c1.294 0.749 2.151 2.127 2.151 3.705 0 0.166-0.009 0.329-0.028 0.49l0.002-0.020z"></path>
</symbol>
<symbol id="icon-mail" viewBox="0 0 36 32">
<path fill="none" stroke="#fff" style="stroke: var(--color2, #fff)" stroke-linejoin="round" stroke-linecap="butt" stroke-miterlimit="4" stroke-width="3.2" d="M2.133 9.6c0-2.356 1.91-4.267 4.267-4.267v0h23.467c2.356 0 4.267 1.91 4.267 4.267v0 14.133c0 2.356-1.91 4.267-4.267 4.267v0h-23.467c-2.356 0-4.267-1.91-4.267-4.267v0-14.133z"></path>
<path fill="none" stroke="#fff" style="stroke: var(--color2, #fff)" stroke-linejoin="round" stroke-linecap="butt" stroke-miterlimit="4" stroke-width="3.2" d="M5.165 8.113c-1.075-0.988-0.378-2.78 1.082-2.78h23.774c1.459 0 2.155 1.792 1.082 2.78l-8.644 7.923c-1.135 1.043-2.655 1.682-4.324 1.682s-3.189-0.639-4.329-1.686l0.005 0.004-8.646-7.923z"></path>
</symbol>
<symbol id="icon-arrow-1" viewBox="0 0 30 32">
<path fill="none" stroke="#fff" style="stroke: var(--color2, #fff)" stroke-linejoin="round" stroke-linecap="round" stroke-miterlimit="4" stroke-width="3.2" d="M11.418 7.344l8.61 8.608-8.608 8.61"></path>
</symbol>
<symbol id="icon-arrow-2" viewBox="0 0 32 32">
<path fill="none" stroke="#fff" style="stroke: var(--color2, #fff)" stroke-linejoin="round" stroke-linecap="round" stroke-miterlimit="4" stroke-width="3.2" d="M19.709 24.656l-8.608-8.608 8.608-8.61"></path>
</symbol>
<symbol id="icon-Ellipse" viewBox="0 0 32 32">
<path fill="#16c7e4" style="fill: var(--color3, #16c7e4)" d="M32 16c0 8.837-7.163 16-16 16s-16-7.163-16-16c0-8.837 7.163-16 16-16s16 7.163 16 16z"></path>
</symbol>
<symbol id="icon-group-04" viewBox="0 0 39 32">
<path fill="#16c7e4" style="fill: var(--color3, #16c7e4)" d="M38.761-10.366c0 23.398-18.968 42.366-42.366 42.366s-42.366-18.968-42.366-42.366c0-23.398 18.968-42.366 42.366-42.366s42.366 18.968 42.366 42.366z"></path>
<path fill="#fff" style="fill: var(--color2, #fff)" d="M16.060 14.281c0.805 0.68 1.207 1.559 1.207 2.637s-0.402 1.953-1.207 2.625c-0.805 0.672-1.816 1.008-3.035 1.008-1.211 0-2.219-0.34-3.023-1.020-0.813-0.68-1.219-1.559-1.219-2.637 0-1.070 0.402-1.941 1.207-2.613 0.805-0.68 1.816-1.020 3.035-1.020 1.211 0 2.222 0.34 3.035 1.020zM14.9 18.207c0.492-0.336 0.738-0.773 0.738-1.312s-0.242-0.969-0.727-1.289c-0.492-0.328-1.121-0.492-1.887-0.492-0.75 0-1.371 0.168-1.863 0.504-0.5 0.336-0.75 0.769-0.75 1.301s0.246 0.961 0.738 1.289c0.485 0.328 1.109 0.492 1.875 0.492 0.758 0 1.383-0.164 1.875-0.492zM17.127 7.959h-1.769v4.008l-1.277 0.293-5.215-4.5v-1.523h5.027v-1.102h1.465v1.102h1.769v1.723zM13.893 10.139v-2.18h-2.555l2.555 2.18z"></path>
</symbol>
<symbol id="icon-group-03" viewBox="0 0 39 32">
<path fill="#16c7e4" style="fill: var(--color3, #16c7e4)" d="M38.761-10.366c0 23.398-18.968 42.366-42.366 42.366s-42.366-18.968-42.366-42.366c0-23.398 18.968-42.366 42.366-42.366s42.366 18.968 42.366 42.366z"></path>
<path fill="#fff" style="fill: var(--color2, #fff)" d="M16.060 14.281c0.805 0.68 1.207 1.559 1.207 2.637s-0.402 1.953-1.207 2.625c-0.805 0.672-1.816 1.008-3.035 1.008-1.211 0-2.219-0.34-3.023-1.020-0.813-0.68-1.219-1.559-1.219-2.637 0-1.070 0.402-1.941 1.207-2.613 0.805-0.68 1.816-1.020 3.035-1.020 1.211 0 2.222 0.34 3.035 1.020zM14.9 18.207c0.492-0.336 0.738-0.773 0.738-1.312s-0.242-0.969-0.727-1.289c-0.492-0.328-1.121-0.492-1.887-0.492-0.75 0-1.371 0.168-1.863 0.504-0.5 0.336-0.75 0.769-0.75 1.301s0.246 0.961 0.738 1.289c0.485 0.328 1.109 0.492 1.875 0.492 0.758 0 1.383-0.164 1.875-0.492zM17.267 9.093c0 1.336-0.473 2.402-1.418 3.199l-1.184-1.242c0.656-0.586 0.984-1.246 0.984-1.98 0-0.344-0.090-0.621-0.27-0.832-0.188-0.219-0.437-0.328-0.75-0.328-0.336 0-0.594 0.141-0.773 0.422s-0.27 0.676-0.27 1.184v0.75l-1.148 0.281-1.969-1.957v3.223h-1.547v-5.543h1.359l1.98 2.074c0.25-1.469 1.023-2.203 2.32-2.203 0.789 0 1.433 0.27 1.934 0.809 0.5 0.531 0.75 1.246 0.75 2.144z"></path>
</symbol>
<symbol id="icon-group-02" viewBox="0 0 39 32">
<path fill="#16c7e4" style="fill: var(--color3, #16c7e4)" d="M38.761-10.366c0 23.398-18.968 42.366-42.366 42.366s-42.366-18.968-42.366-42.366c0-23.398 18.968-42.366 42.366-42.366s42.366 18.968 42.366 42.366z"></path>
<path fill="#fff" style="fill: var(--color2, #fff)" d="M16.060 14.281c0.805 0.68 1.207 1.559 1.207 2.637s-0.402 1.953-1.207 2.625c-0.805 0.672-1.816 1.008-3.035 1.008-1.211 0-2.219-0.34-3.023-1.020-0.813-0.68-1.219-1.559-1.219-2.637 0-1.070 0.402-1.941 1.207-2.613 0.805-0.68 1.816-1.020 3.035-1.020 1.211 0 2.222 0.34 3.035 1.020zM14.9 18.207c0.492-0.336 0.738-0.773 0.738-1.312s-0.242-0.969-0.727-1.289c-0.492-0.328-1.121-0.492-1.887-0.492-0.75 0-1.371 0.168-1.863 0.504-0.5 0.336-0.75 0.769-0.75 1.301s0.246 0.961 0.738 1.289c0.485 0.328 1.109 0.492 1.875 0.492 0.758 0 1.383-0.164 1.875-0.492zM17.127 12.164h-1.43l-2.238-2.73c-0.445-0.539-0.801-0.91-1.066-1.113-0.246-0.19-0.559-0.305-0.899-0.305-0.001 0-0.002 0-0.003 0h0c-0.336 0-0.598 0.101-0.785 0.305s-0.281 0.469-0.281 0.797c0 0.305 0.086 0.582 0.258 0.832 0.164 0.242 0.445 0.523 0.844 0.844l-1.020 1.266c-0.586-0.43-1.015-0.871-1.289-1.324-0.274-0.461-0.41-1.039-0.41-1.734 0-0.852 0.234-1.535 0.703-2.051 0.461-0.516 1.078-0.773 1.851-0.773 0.445 0 0.847 0.086 1.207 0.258 0.362 0.178 0.671 0.401 0.937 0.668v0c0.266 0.273 0.609 0.683 1.031 1.23l1.031 1.336v-3.574h1.559v6.070z"></path>
</symbol>
<symbol id="icon-group-01" viewBox="0 0 39 32">
<path fill="#16c7e4" style="fill: var(--color3, #16c7e4)" d="M38.761-10.366c0 23.398-18.968 42.366-42.366 42.366s-42.366-18.968-42.366-42.366c0-23.398 18.968-42.366 42.366-42.366s42.366 18.968 42.366 42.366z"></path>
<path fill="#fff" style="fill: var(--color2, #fff)" d="M16.060 14.281c0.805 0.68 1.207 1.559 1.207 2.637s-0.402 1.953-1.207 2.625c-0.805 0.672-1.816 1.008-3.035 1.008-1.211 0-2.219-0.34-3.023-1.020-0.813-0.68-1.219-1.559-1.219-2.637 0-1.070 0.402-1.941 1.207-2.613 0.805-0.68 1.816-1.020 3.035-1.020 1.211 0 2.222 0.34 3.035 1.020zM14.9 18.207c0.492-0.336 0.738-0.773 0.738-1.312s-0.242-0.969-0.727-1.289c-0.492-0.328-1.121-0.492-1.887-0.492-0.75 0-1.371 0.168-1.863 0.504-0.5 0.336-0.75 0.769-0.75 1.301s0.246 0.961 0.738 1.289c0.485 0.328 1.109 0.492 1.875 0.492 0.758 0 1.383-0.164 1.875-0.492zM17.127 10.594h-6.433l0.352 1.43-1.476 0.375-0.703-2.355v-1.23h8.261v1.781z"></path>
</symbol>

<symbol id="icon-close-mbmenu" viewBox="0 0 32 32">
<path stroke-linejoin="round" stroke-linecap="round" stroke-miterlimit="4" stroke-width="2" d="M8 8l17.032 17.032M8 25.032l17.032-17.032"></path>
</symbol>
<symbol id="icon-open-mbmenu" viewBox="0 0 61 32">
<path stroke-linejoin="miter" stroke-linecap="round" stroke-miterlimit="4" stroke-width="4.1739" d="M2.087 2.087h57.043M2.087 16h57.043M2.087 29.913h57.043"></path>
</symbol>
<symbol id="icon-mobile-close-menu" viewBox="0 0 32 32">
<path d="M23.734 10.304l-1.504-1.504-5.963 5.962-5.962-5.962-1.504 1.504 5.962 5.962-5.962 5.963 1.504 1.504 5.962-5.963 5.963 5.963 1.504-1.504-5.963-5.963 5.963-5.962z"></path>
</symbol>
<symbol id="icon-mobile-menu" viewBox="0 0 32 32">
<path d="M6.4 11.734v-2.134h19.2v2.134h-19.2zM6.4 17.066h19.2v-2.133h-19.2v2.133zM6.4 22.4h19.2v-2.134h-19.2v2.134z"></path>
</symbol>
<symbol id="icon-youtube" viewBox="0 0 32 32">
<path  d="M16.275 28.063c-3.568-0.112-6.963-0.2-10.356-0.331-0.796-0.039-1.545-0.151-2.267-0.33l0.081 0.017c-1.34-0.312-2.265-1.119-2.74-2.437-0.381-1.063-0.519-2.156-0.619-3.269-0.219-2.612-0.219-5.224-0.112-7.837 0.063-1.475 0.1-2.963 0.493-4.393 0.237-0.856 0.525-1.693 1.219-2.312 0.732-0.657 1.587-1.051 2.563-1.093 2.675-0.133 5.344-0.295 8.019-0.32 3.6-0.037 7.207 0.013 10.807 0.081 1.556 0.032 3.125 0.113 4.668 0.313 1.413 0.187 2.469 0.973 3.032 2.349 0.431 1.056 0.593 2.163 0.687 3.288 0.244 2.819 0.251 5.637 0.113 8.456-0.069 1.431-0.137 2.868-0.544 4.263-0.463 1.6-1.444 2.656-3.081 3.019-0.637 0.137-1.3 0.187-1.951 0.213-3.4 0.117-6.793 0.224-10.012 0.324zM12.819 20.956c2.849-1.475 5.669-2.937 8.544-4.431-2.869-1.5-5.688-2.969-8.544-4.463v8.893z"></path>
</symbol>
<symbol id="icon-whatsapp" viewBox="0 0 32 32">
<path  d="M32 15.587c0 8.611-7.032 15.589-15.709 15.589-2.755 0-5.343-0.704-7.593-1.94l-8.697 2.764 2.836-8.364c-1.416-2.287-2.255-5.060-2.255-8.029 0-0.007 0-0.013 0-0.020v0.001c0-8.609 7.033-15.588 15.709-15.588 8.677 0 15.709 6.979 15.709 15.587zM16.291 2.484c-7.283 0-13.207 5.88-13.207 13.105 0 2.867 0.933 5.523 2.515 7.684l-1.649 4.867 5.076-1.613c2.041 1.359 4.55 2.168 7.248 2.168 0.007 0 0.013 0 0.020 0h-0.001c7.281 0 13.207-5.879 13.207-13.105s-5.925-13.107-13.208-13.107zM24.224 19.179c-0.097-0.159-0.353-0.253-0.739-0.445-0.385-0.191-2.28-1.116-2.631-1.243-0.353-0.127-0.611-0.191-0.867 0.191-0.257 0.383-0.995 1.243-1.22 1.497-0.224 0.256-0.449 0.288-0.835 0.097-0.384-0.191-1.625-0.595-3.096-1.896-1.144-1.013-1.917-2.264-2.143-2.647-0.224-0.381-0.023-0.588 0.169-0.779 0.173-0.172 0.387-0.447 0.577-0.669 0.193-0.223 0.257-0.381 0.385-0.637 0.129-0.255 0.064-0.477-0.032-0.669-0.096-0.191-0.867-2.071-1.187-2.836-0.321-0.765-0.643-0.637-0.867-0.637-0.225 0-0.481-0.032-0.739-0.032s-0.675 0.096-1.027 0.477c-0.353 0.383-1.347 1.307-1.347 3.187s1.379 3.697 1.571 3.952c0.193 0.253 2.664 4.237 6.579 5.768 3.915 1.529 3.915 1.019 4.621 0.955 0.705-0.063 2.277-0.924 2.6-1.816 0.32-0.893 0.32-1.657 0.224-1.817z"></path>
</symbol>
<symbol id="icon-telegram" viewBox="0 0 32 32">
<path d="M11.867 26.548l0.435-6.712 11.932-10.981c0.528-0.493-0.109-0.731-0.808-0.301l-14.728 9.505-6.369-2.064c-1.367-0.395-1.381-1.364 0.312-2.061l24.811-9.775c1.133-0.524 2.221 0.285 1.787 2.063l-4.227 20.328c-0.295 1.444-1.149 1.793-2.329 1.127l-6.432-4.856-3.092 3.063c-0.357 0.365-0.653 0.667-1.289 0.667z"></path>
</symbol>
<symbol id="icon-instagram" viewBox="0 0 32 32">
<path  d="M31.563 16.063c0 2.173-0.044 4.356 0.013 6.531 0.093 3.851-2.325 6.825-5.407 8.151-1.143 0.511-2.477 0.809-3.88 0.812h-0.001c-4.207 0.007-8.419 0.063-12.627-0.019-3.168-0.063-5.773-1.387-7.643-4-0.981-1.375-1.449-2.937-1.449-4.631v-13.44c0-3.656 1.781-6.212 4.943-7.875 1.376-0.717 2.869-1.024 4.427-1.029 4.080 0 8.168-0.027 12.249 0.012 3.168 0.025 5.812 1.237 7.763 3.787 1.087 1.427 1.612 3.064 1.612 4.864v6.837zM2.875 16.063v6.875c0 1.025 0.237 1.987 0.769 2.856 1.393 2.281 3.5 3.393 6.112 3.437 4.195 0.063 8.395 0.025 12.593 0.013 1.032 0 2.032-0.213 2.963-0.657 2.537-1.212 3.957-3.143 3.944-6.043-0.024-4.439-0.007-8.876-0.007-13.313 0-0.021 0-0.046 0-0.072 0-1.26-0.413-2.423-1.111-3.362l0.011 0.015c-1.437-1.944-3.424-2.9-5.8-2.925-4.187-0.049-8.373-0.019-12.561-0.012-0.893 0-1.757 0.181-2.595 0.493-2.3 0.857-4.437 3.027-4.337 6.219 0.075 2.163 0.019 4.32 0.019 6.476z"></path>
<path  d="M16.1 22.688c-4.031 0-7.28-3.213-7.288-7.213-0.005-3.937 3.269-7.163 7.276-7.163 4.019-0.005 7.28 3.213 7.287 7.181 0 3.963-3.256 7.187-7.275 7.195zM16.1 20.375c2.744 0 4.969-2.193 4.963-4.893-0.007-2.675-2.232-4.863-4.963-4.863-2.744 0-4.981 2.181-4.981 4.875 0.007 2.7 2.237 4.888 4.981 4.881zM24.219 6.125c0.844 0 1.531 0.719 1.531 1.6-0.005 0.88-0.699 1.593-1.543 1.587-0.832-0.005-1.513-0.719-1.513-1.581-0.005-0.88 0.681-1.605 1.525-1.605z"></path>
</symbol>
<symbol id="icon-play" viewBox="0 0 32 32">
<path fill="#fff" style="fill: var(--color1, #fff); stroke: var(--color1, #fff)" stroke="#fff" stroke-linejoin="round" stroke-linecap="round" stroke-miterlimit="4" stroke-width="2.56" d="M6.734 8.236c0-0 0-0 0-0 0-1.060 0.86-1.92 1.92-1.92 0.366 0 0.708 0.102 0.999 0.28l-0.008-0.005 13.229 7.972c0.561 0.342 0.93 0.95 0.93 1.645s-0.369 1.303-0.921 1.64l-0.008 0.005-13.229 7.972c-0.283 0.173-0.625 0.275-0.991 0.275-1.060 0-1.92-0.86-1.92-1.92 0-0 0-0 0-0v0-15.944z"></path>
</symbol>
<symbol id="icon-Plus-modal" viewBox="0 0 32 32">
<path stroke-linejoin="round" stroke-linecap="round" stroke-miterlimit="4" stroke-width="3.0476" d="M16 4v24M4 16h24"></path>
</symbol>
</defs>
</svg>
